<?xml version="1.0" encoding="iso-8859-1"?>
<!-- Generator: Adobe Illustrator 19.0.0, SVG Export Plug-In . SVG Version: 6.00 Build 0)  -->
<svg version="1.1" id="Capa_1" xmlns="http://www.w3.org/2000/svg" xmlns:xlink="http://www.w3.org/1999/xlink" x="0px" y="0px"
	 viewBox="0 0 512 512" style="enable-background:new 0 0 512 512;" xml:space="preserve">
<path style="fill:#6A80FF;" d="M10,50.004v411.991c0,22.091,17.909,39.999,39.999,39.999h412.002
	c22.091,0,39.999-17.909,39.999-39.999V50.004c0-22.091-17.909-39.999-39.999-39.999H49.999C27.908,10.005,10,27.913,10,50.004z"/>
<path style="fill:#ADE5FF;" d="M350.184,502.95h117.035c19.21,0,34.782-15.573,34.782-34.782V220.116
	c0-19.21-15.573-34.782-34.782-34.782H44.782c-19.21,0-34.782,15.573-34.782,34.782v248.052c0,19.21,15.573,34.782,34.782,34.782
	H162.06H350.184z"/>
<g>
	<path style="fill:#EDF2FA;" d="M227.29,185.335c1.712-2.803,2.285-6.347,1.016-9.947l0,0c-3.24-9.19-4.896-18.864-4.896-28.608
		v-43.935c0-9.745,1.655-19.419,4.896-28.608l0,0c3.271-9.279-5.662-18.212-14.94-14.94l0,0c-8.839,3.116-18.143,4.709-27.514,4.709
		H87.234c-9.372,0-18.676-1.592-27.514-4.709l0,0c-9.279-3.271-18.212,5.662-14.94,14.94l0,0c3.24,9.19,4.896,18.864,4.896,28.608
		v43.935c0,9.745-1.655,19.419-4.896,28.608l0,0c-1.269,3.599-0.696,7.143,1.016,9.947H227.29z"/>
	<path style="fill:#EDF2FA;" d="M466.196,185.335c1.712-2.803,2.285-6.347,1.016-9.947l0,0c-3.24-9.19-4.896-18.864-4.896-28.608
		v-43.935c0-9.745,1.655-19.419,4.896-28.608l0,0c3.271-9.279-5.662-18.212-14.94-14.94l0,0c-8.839,3.116-18.143,4.709-27.514,4.709
		H326.14c-9.372,0-18.676-1.592-27.514-4.709l0,0c-9.279-3.271-18.212,5.662-14.94,14.94l0,0c3.24,9.19,4.896,18.864,4.896,28.608
		v43.935c0,9.745-1.655,19.419-4.896,28.608l0,0c-1.269,3.599-0.696,7.143,1.016,9.947H466.196z"/>
</g>
<path style="fill:#FFFFFF;" d="M350.184,351.563h117.035c19.21,0,34.782-15.573,34.782-34.782v-96.665
	c0-19.21-15.573-34.782-34.782-34.782H44.782c-19.21,0-34.782,15.573-34.782,34.782v96.665c0,19.21,15.573,34.782,34.782,34.782
	H162.06H350.184z"/>
<path style="fill:#FEDA9B;" d="M375.992,262H135.997c-11.046,0-20,8.954-20,20v135.997c0,11.046,8.954,20,20,20h239.995
	c11.046,0,20-8.954,20-20V281.999C395.992,270.954,387.038,262,375.992,262z"/>
<circle style="fill:#FF6E37;" cx="315.453" cy="315.323" r="23.999"/>
<circle style="fill:#FEA02C;" cx="340.453" cy="387.501" r="20"/>
<circle style="fill:#FFFFFF;" cx="208.006" cy="349.502" r="55.999"/>
<circle style="fill:#FEA02C;" cx="208.006" cy="349.502" r="20"/>
<path d="M462.001,0.006H49.999C22.43,0.006,0,22.435,0,50.004v411.991c0,27.569,22.43,49.999,49.999,49.999h412.002
	c27.569,0,49.999-22.43,49.999-49.999V50.004C512,22.434,489.572,0.006,462.001,0.006z M49.999,20.005h412.002
	c16.542,0,29.999,13.458,29.999,29.999v132.836c-4.299-2.868-9.121-5.006-14.288-6.252c-0.194-1.524-0.547-3.041-1.071-4.526
	c-2.871-8.143-4.327-16.649-4.327-25.283v-43.935c0-8.636,1.456-17.143,4.327-25.284c2.806-7.957,0.842-16.606-5.124-22.572
	c-5.967-5.968-14.616-7.93-22.574-5.124c-7.789,2.747-15.927,4.14-24.188,4.14h-98.618c-8.262,0-16.4-1.393-24.189-4.14
	c-7.955-2.808-16.605-0.843-22.572,5.123c-5.966,5.967-7.93,14.616-5.124,22.574c2.871,8.142,4.326,16.648,4.326,25.282v43.936
	c0,8.635-1.456,17.142-4.327,25.283c-0.38,1.077-0.666,2.171-0.872,3.271h-34.771c-0.206-1.101-0.493-2.195-0.872-3.271
	c-2.871-8.143-4.327-16.649-4.327-25.283v-43.935c0-8.636,1.456-17.143,4.327-25.284c2.806-7.957,0.842-16.606-5.124-22.572
	c-5.967-5.968-14.617-7.93-22.573-5.124c-7.79,2.747-15.928,4.14-24.189,4.14H87.233c-8.262,0-16.401-1.393-24.189-4.14
	c-7.955-2.808-16.605-0.843-22.572,5.123c-5.966,5.967-7.93,14.616-5.124,22.574c2.871,8.142,4.326,16.648,4.326,25.282v43.936
	c0,8.635-1.456,17.142-4.327,25.283c-0.524,1.486-0.877,3.003-1.071,4.528c-5.163,1.246-9.98,3.384-14.276,6.249V50.004
	C20,33.463,33.457,20.005,49.999,20.005z M492,316.781c0,13.666-11.118,24.782-24.782,24.782h-61.227v-59.564
	c0-16.542-13.458-29.999-29.999-29.999H135.997c-16.542,0-29.999,13.458-29.999,29.999v59.564H44.782
	C31.117,341.563,20,330.446,20,316.781v-81.447h64.315c5.523,0,10-4.478,10-10c0-5.522-4.477-10-10-10H20.468
	c2.235-11.384,12.286-20,24.314-20h182.484c0.005,0,0.01,0.001,0.015,0.001s0.01-0.001,0.016-0.001h57.398
	c0.005,0,0.01,0.001,0.016,0.001c0.005,0,0.01-0.001,0.015-0.001h182.495c13.665,0,24.782,11.117,24.782,24.782v96.664H492z
	 M54.208,70.91c-0.089-0.252-0.359-1.018,0.404-1.78s1.529-0.491,1.78-0.404c9.931,3.503,20.308,5.278,30.84,5.278h98.618
	c10.533,0,20.91-1.775,30.84-5.278c0.252-0.087,1.018-0.357,1.78,0.404c0.763,0.764,0.493,1.529,0.404,1.781
	c-3.626,10.283-5.464,21.028-5.464,31.934v43.935c0,9.718,1.469,19.305,4.353,28.555H55.32c2.883-9.251,4.353-18.838,4.353-28.555
	v-43.936C59.673,91.939,57.834,81.195,54.208,70.91z M293.115,70.91c-0.089-0.252-0.359-1.018,0.404-1.78
	c0.763-0.762,1.529-0.491,1.78-0.404c9.932,3.503,20.308,5.278,30.84,5.278h98.618c10.534,0,20.91-1.775,30.84-5.278
	c0.252-0.087,1.018-0.357,1.78,0.404c0.763,0.764,0.493,1.529,0.404,1.781c-3.626,10.283-5.464,21.028-5.464,31.934v43.935
	c0,9.718,1.469,19.305,4.353,28.555H294.226c2.883-9.251,4.353-18.838,4.353-28.555v-43.936
	C298.579,91.939,296.741,81.195,293.115,70.91z M462.001,491.995H49.999C33.457,491.995,20,478.537,20,461.996V354.058
	c7.102,4.737,15.624,7.506,24.782,7.506h61.216v56.434c0,16.542,13.458,29.999,29.999,29.999h75.546c5.523,0,10-4.478,10-10
	s-4.477-10-10-10h-75.546c-5.514,0-10-4.486-10-10V282c0-5.514,4.486-10,10-10h239.995c5.514,0,10,4.486,10,10v135.997
	c0,5.514-4.486,10-10,10h-75.665c-5.523,0-10,4.478-10,10s4.477,10,10,10h75.665c16.542,0,29.999-13.458,29.999-29.999v-56.434
	h61.228c9.159,0,17.681-2.769,24.782-7.506v107.938C492,478.537,478.543,491.995,462.001,491.995z"/>
<path d="M255.995,427.996c-2.63,0-5.21,1.069-7.06,2.93c-1.87,1.86-2.94,4.44-2.94,7.07s1.07,5.21,2.94,7.069
	c1.86,1.86,4.43,2.931,7.06,2.931c2.64,0,5.21-1.07,7.08-2.931c1.86-1.859,2.92-4.439,2.92-7.069s-1.06-5.21-2.92-7.07
	C261.214,429.065,258.634,427.996,255.995,427.996z"/>
<path d="M315.457,349.327c18.748,0,33.999-15.252,33.999-33.999c0-4.419-0.856-8.639-2.397-12.515l3.316-3.317
	c3.905-3.905,3.905-10.236,0-14.142c-3.905-3.904-10.237-3.904-14.142,0l-1.785,1.785c-5.426-3.668-11.964-5.812-18.992-5.812
	c-18.748,0-33.999,15.252-33.999,33.999S296.711,349.327,315.457,349.327z M315.457,301.328c7.72,0,14,6.28,14,14s-6.28,14-14,14
	c-7.72,0-14-6.28-14-14S307.738,301.328,315.457,301.328z"/>
<path d="M310.457,387.497c0,16.542,13.458,29.999,29.999,29.999c16.542,0,29.999-13.458,29.999-29.999
	c0-16.542-13.458-29.999-29.999-29.999C323.915,357.498,310.457,370.956,310.457,387.497z M350.456,387.497c0,5.514-4.486,10-10,10
	c-5.514,0-10-4.486-10-10s4.486-10,10-10C345.971,377.497,350.456,381.983,350.456,387.497z"/>
<path d="M208.004,319.499c-16.542,0-29.999,13.458-29.999,29.999s13.458,29.999,29.999,29.999s29.999-13.458,29.999-29.999
	S224.545,319.499,208.004,319.499z M208.004,359.498c-5.514,0-10-4.486-10-10s4.486-10,10-10c5.514,0,10,4.486,10,10
	S213.517,359.498,208.004,359.498z"/>
<path d="M208.004,283.499c-36.392,0-65.999,29.606-65.999,65.999s29.606,65.999,65.999,65.999s65.999-29.606,65.999-65.999
	S244.396,283.499,208.004,283.499z M208.004,395.497c-25.363,0-45.999-20.636-45.999-45.999s20.636-45.999,45.999-45.999
	s45.999,20.636,45.999,45.999S233.368,395.497,208.004,395.497z"/>
<path d="M120.667,215.331c-2.64,0-5.21,1.069-7.07,2.93c-1.87,1.86-2.93,4.44-2.93,7.07c0,2.64,1.06,5.21,2.93,7.069
	c1.86,1.87,4.43,2.931,7.07,2.931c2.63,0,5.21-1.061,7.07-2.931c1.86-1.859,2.93-4.439,2.93-7.069c0-2.63-1.07-5.2-2.93-7.07
	C125.877,216.4,123.297,215.331,120.667,215.331z"/>
<g>
</g>
<g>
</g>
<g>
</g>
<g>
</g>
<g>
</g>
<g>
</g>
<g>
</g>
<g>
</g>
<g>
</g>
<g>
</g>
<g>
</g>
<g>
</g>
<g>
</g>
<g>
</g>
<g>
</g>
</svg>
