<?xml version="1.0" encoding="iso-8859-1"?>
<!-- Generator: Adobe Illustrator 19.0.0, SVG Export Plug-In . SVG Version: 6.00 Build 0)  -->
<svg version="1.1" id="Capa_1" xmlns="http://www.w3.org/2000/svg" xmlns:xlink="http://www.w3.org/1999/xlink" x="0px" y="0px"
	 viewBox="0 0 512.001 512.001" style="enable-background:new 0 0 512.001 512.001;" xml:space="preserve">
<path style="fill:#EECC77;" d="M417.371,55.616c0-25.193-20.423-45.616-45.616-45.616H140.247
	c-25.193,0-45.616,20.423-45.616,45.616v28.363h322.74V55.616z"/>
<polygon style="fill:#E6E5EA;" points="417.371,83.979 417.371,83.979 94.631,83.979 94.631,83.979 94.631,339.898 417.371,339.898 
	"/>
<path style="fill:#7CC1EE;" d="M406.281,453.422c6.125,0,11.09-4.965,11.09-11.09v-54.068h-84.284c-4.021,0-7.281-3.26-7.281-7.281
	v-40.865h91.565v-0.221H94.631v0.221v102.214c0,6.125,4.965,11.09,11.09,11.09h5.528h66.901h155.7h66.901H406.281z M187.495,380.111
	c0,4.503-3.65,8.153-8.153,8.153H95.931v-48.145h91.565v39.992H187.495z"/>
<g>
	<path style="fill:#B4C0C8;" d="M351.42,502h31.763c9.703,0,17.569-7.866,17.569-17.569v-31.009h-66.901v31.009
		C333.851,494.134,341.717,502,351.42,502z"/>
	<path style="fill:#B4C0C8;" d="M111.25,484.431c0,9.703,7.866,17.569,17.569,17.569h31.763c9.703,0,17.569-7.866,17.569-17.569
		v-31.009H111.25C111.25,453.422,111.25,484.431,111.25,484.431z"/>
</g>
<g>
	<path style="fill:#EECC77;" d="M95.931,388.264h83.412c4.503,0,8.153-3.65,8.153-8.153v-39.993H95.931V388.264z"/>
	<path style="fill:#EECC77;" d="M325.806,380.983c0,4.021,3.26,7.281,7.281,7.281h84.284v-48.145h-91.565V380.983z"/>
</g>
<g>
	<rect x="22.021" y="213.26" style="fill:#CD5897;" width="45.843" height="80.44"/>
	<rect x="444.141" y="213.26" style="fill:#CD5897;" width="45.843" height="80.44"/>
</g>
<g>
	<path style="fill:#040507;" d="M22.016,303.705h45.843c5.522,0,10-4.477,10-10v-80.44c0-5.523-4.478-10-10-10H53.576v-52.257
		c0-4.276,3.479-7.755,7.756-7.755h23.299v196.645v1.437v100.998c0,10.094,7.132,18.544,16.619,20.602v21.497
		c0,15.202,12.367,27.569,27.568,27.569h31.764c15.201,0,27.568-12.367,27.568-27.569v-21.009H323.85v21.009
		c0,15.202,12.367,27.569,27.568,27.569h31.764c15.201,0,27.568-12.367,27.568-27.569v-21.497
		c9.487-2.058,16.619-10.509,16.619-20.602v-54.068v-46.929v-1.216v-0.221V143.252h23.299c4.276,0,7.756,3.479,7.756,7.755v52.257
		h-14.282c-5.522,0-10,4.477-10,10v80.44c0,5.523,4.478,10,10,10h45.843c5.522,0,10-4.477,10-10v-80.44c0-5.523-4.478-10-10-10
		h-11.561v-52.257c0-15.304-12.451-27.755-27.756-27.755h-23.298V85.195c0-0.205-0.019-0.406-0.031-0.608
		c0.012-0.202,0.031-0.403,0.031-0.608V55.616C427.371,24.949,402.422,0,371.755,0H140.247C109.58,0,84.631,24.949,84.631,55.616
		v28.363c0,0.205,0.019,0.406,0.031,0.608c-0.012,0.202-0.031,0.403-0.031,0.608v38.057H61.332
		c-15.305,0-27.756,12.451-27.756,27.755v52.257h-11.56c-5.522,0-10,4.477-10,10v80.44
		C12.016,299.228,16.493,303.705,22.016,303.705z M479.986,223.265v60.44h-25.843v-60.44L479.986,223.265L479.986,223.265z
		 M407.371,351.334v26.929h-71.565v-26.929L407.371,351.334L407.371,351.334z M177.495,351.334v26.929h-71.564v-26.929
		L177.495,351.334L177.495,351.334z M104.631,133.252V95.195h302.74v38.057v196.645H263.307l-52.814-60.419
		c-3.635-4.158-9.952-4.583-14.11-0.947c-4.158,3.635-4.583,9.952-0.948,14.11l41.308,47.256H104.631V133.252z M168.15,484.431
		c0,4.173-3.396,7.569-7.568,7.569h-31.764c-4.173,0-7.568-3.396-7.568-7.569v-21.009h46.9L168.15,484.431L168.15,484.431z
		 M390.752,484.431c0,4.173-3.396,7.569-7.568,7.569H351.42c-4.173,0-7.568-3.396-7.568-7.569v-21.009h46.9V484.431z
		 M333.852,443.422H178.15h-66.9h-5.528c-0.602,0-1.091-0.489-1.091-1.09v-44.068h74.328c10.221,0,18.536-8.315,18.536-18.536
		v-28.393h118.311v28.393c0,10.221,8.315,18.536,18.536,18.536h73.029v44.068c0,0.601-0.489,1.09-1.091,1.09h-5.528H333.852z
		 M104.631,55.616c0-19.638,15.977-35.616,35.616-35.616h231.508c19.639,0,35.616,15.978,35.616,35.616v18.363h-302.74V55.616z
		 M32.016,223.265h25.843v60.44H32.016V223.265z"/>
	<path style="fill:#040507;" d="M287.813,407.581H224.19c-5.522,0-10,4.477-10,10s4.478,10,10,10h63.623c5.522,0,10-4.477,10-10
		S293.335,407.581,287.813,407.581z"/>
	<path style="fill:#040507;" d="M185.871,242.12c-0.25-0.6-0.561-1.19-0.92-1.73c-0.36-0.55-0.78-1.06-1.24-1.52
		c-0.46-0.46-0.98-0.88-1.521-1.24c-0.541-0.36-1.13-0.67-1.729-0.92c-0.601-0.25-1.23-0.44-1.87-0.57c-1.29-0.26-2.62-0.26-3.91,0
		c-0.64,0.13-1.27,0.32-1.87,0.57c-0.6,0.25-1.18,0.56-1.72,0.92c-0.55,0.36-1.06,0.78-1.521,1.24c-0.47,0.46-0.88,0.97-1.25,1.52
		c-0.359,0.54-0.67,1.13-0.92,1.73c-0.25,0.6-0.439,1.23-0.569,1.87s-0.19,1.3-0.19,1.95c0,0.66,0.061,1.31,0.19,1.96
		c0.13,0.64,0.319,1.27,0.569,1.87c0.25,0.6,0.561,1.18,0.92,1.72c0.37,0.55,0.78,1.06,1.25,1.52c0.461,0.47,0.971,0.88,1.521,1.25
		c0.54,0.36,1.12,0.67,1.72,0.92c0.601,0.25,1.23,0.44,1.87,0.57c0.65,0.13,1.3,0.19,1.96,0.19c0.65,0,1.311-0.06,1.95-0.19
		c0.64-0.13,1.27-0.32,1.87-0.57s1.189-0.56,1.729-0.92c0.54-0.37,1.061-0.78,1.521-1.25c0.46-0.46,0.88-0.97,1.24-1.52
		c0.359-0.54,0.67-1.12,0.92-1.72s0.439-1.23,0.569-1.87c0.13-0.65,0.2-1.3,0.2-1.96c0-0.65-0.07-1.31-0.2-1.95
		C186.31,243.35,186.121,242.72,185.871,242.12z"/>
</g>
<g>
</g>
<g>
</g>
<g>
</g>
<g>
</g>
<g>
</g>
<g>
</g>
<g>
</g>
<g>
</g>
<g>
</g>
<g>
</g>
<g>
</g>
<g>
</g>
<g>
</g>
<g>
</g>
<g>
</g>
</svg>
